HIERARCHY
ROOT reference
{
  OFFSET 0 0 0
  CHANNELS 6 Xposition Yposition Zposition Zrotation Xrotation Yrotation
  JOINT Hips
  {
    OFFSET 44.6805 85.9651 -20.1189
    CHANNELS 3 Zrotation Xrotation Yrotation
    JOINT RightUpLeg
    {
      OFFSET -9.20028 -1.61905 0.0313892
      CHANNELS 3 Zrotation Xrotation Yrotation
      JOINT RightLeg
      {
        OFFSET 0.0920446 -41.8676 0.113709
        CHANNELS 3 Zrotation Xrotation Yrotation
        JOINT RightFoot
        {
          OFFSET -0.78009 -42.2818 -0.985537
          CHANNELS 3 Zrotation Xrotation Yrotation
          End Site
          {
            OFFSET 0 -7.69 17.5
          }
        }
      }
    }
    JOINT LeftUpLeg
    {
      OFFSET 9.33559 -1.63058 -0.0435578
      CHANNELS 3 Zrotation Xrotation Yrotation
      JOINT LeftLeg
      {
        OFFSET 0.124601 -41.8685 -0.0153308
        CHANNELS 3 Zrotation Xrotation Yrotation
        JOINT LeftFoot
        {
          OFFSET -0.885525 -42.178 -0.480441
          CHANNELS 3 Zrotation Xrotation Yrotation
          End Site
          {
            OFFSET 0 -7.69 17.5
          }
        }
      }
    }
    JOINT Spine
    {
      OFFSET -0.030151 14.2977 0.0632059
      CHANNELS 3 Zrotation Xrotation Yrotation
      JOINT Spine1
      {
        OFFSET -0.0449239 9.71163 -4.69081e-05
        CHANNELS 3 Zrotation Xrotation Yrotation
        JOINT Spine2
        {
          OFFSET 0.0275009 10.1133 -0.0283136
          CHANNELS 3 Zrotation Xrotation Yrotation
          JOINT Spine3
          {
            OFFSET 0.0288761 9.7229 -0.000806902
            CHANNELS 3 Zrotation Xrotation Yrotation
            JOINT Neck
            {
              OFFSET -0.0518603 10.2949 0.241895
              CHANNELS 3 Zrotation Xrotation Yrotation
              JOINT Head
              {
                OFFSET -0.275401 9.55953 0.0709142
                CHANNELS 3 Zrotation Xrotation Yrotation
                End Site
                {
                  OFFSET 0 15.95 0
                }
              }
            }
            JOINT RightShoulder
            {
              OFFSET -3.17286 6.95881 0.00543218
              CHANNELS 3 Zrotation Xrotation Yrotation
              JOINT RightArm
              {
                OFFSET -12.7612 0.039846 0.0411956
                CHANNELS 3 Zrotation Xrotation Yrotation
                JOINT RightForeArm
                {
                  OFFSET -26.5517 0.0729849 0.08211
                  CHANNELS 3 Zrotation Xrotation Yrotation
                  JOINT RightHand
                  {
                    OFFSET -26.0042 -0.0197864 0.0403594
                    CHANNELS 3 Zrotation Xrotation Yrotation
                    JOINT RightHandThumb1
                    {
                      OFFSET -2.48905 0.190105 3.12053
                      CHANNELS 3 Zrotation Xrotation Yrotation
                      JOINT RightHandThumb2
                      {
                        OFFSET -3.68274 0 0
                        CHANNELS 3 Zrotation Xrotation Yrotation
                        JOINT RightHandThumb3
                        {
                          OFFSET -2.55832 0 0
                          CHANNELS 3 Zrotation Xrotation Yrotation
                          End Site
                          {
                            OFFSET -2.194 0 0
                          }
                        }
                      }
                    }
                    JOINT RightInHandIndex
                    {
                      OFFSET -3.22368 0.508421 1.97842
                      CHANNELS 3 Zrotation Xrotation Yrotation
                      JOINT RightHandIndex1
                      {
                        OFFSET -5.21684 -0.091368 0.999158
                        CHANNELS 3 Zrotation Xrotation Yrotation
                        JOINT RightHandIndex2
                        {
                          OFFSET -3.61937 0 0
                          CHANNELS 3 Zrotation Xrotation Yrotation
                          JOINT RightHandIndex3
                          {
                            OFFSET -2.0521 0 0
                            CHANNELS 3 Zrotation Xrotation Yrotation
                            End Site
                            {
                              OFFSET -1.805 0 0
                            }
                          }
                        }
                      }
                    }
                    JOINT RightInHandMiddle
                    {
                      OFFSET -3.38211 0.517263 0.756737
                      CHANNELS 3 Zrotation Xrotation Yrotation
                      JOINT RightHandMiddle1
                      {
                        OFFSET -5.17411 -0.084 0.313895
                        CHANNELS 3 Zrotation Xrotation Yrotation
                        JOINT RightHandMiddle2
                        {
                          OFFSET -3.94947 0 0
                          CHANNELS 3 Zrotation Xrotation Yrotation
                          JOINT RightHandMiddle3
                          {
                            OFFSET -2.47579 0 0
                            CHANNELS 3 Zrotation Xrotation Yrotation
                            End Site
                            {
                              OFFSET -1.975 0 0
                            }
                          }
                        }
                      }
                    }
                    JOINT RightInHandRing
                    {
                      OFFSET -3.36516 0.537895 -0.128947
                      CHANNELS 3 Zrotation Xrotation Yrotation
                      JOINT RightHandRing1
                      {
                        OFFSET -4.63474 -0.022105 -0.478947
                        CHANNELS 3 Zrotation Xrotation Yrotation
                        JOINT RightHandRing2
                        {
                          OFFSET -3.44238 0 0
                          CHANNELS 3 Zrotation Xrotation Yrotation
                          JOINT RightHandRing3
                          {
                            OFFSET -2.3881 0 0
                            CHANNELS 3 Zrotation Xrotation Yrotation
                            End Site
                            {
                              OFFSET -1.857 0 0
                            }
                          }
                        }
                      }
                    }
                    JOINT RightInHandPinky
                    {
                      OFFSET -3.16105 0.469368 -1.20179
                      CHANNELS 3 Zrotation Xrotation Yrotation
                      JOINT RightHandPinky1
                      {
                        OFFSET -4.14105 -0.022105 -1.09053
                        CHANNELS 3 Zrotation Xrotation Yrotation
                        JOINT RightHandPinky2
                        {
                          OFFSET -2.75653 0 0
                          CHANNELS 3 Zrotation Xrotation Yrotation
                          JOINT RightHandPinky3
                          {
                            OFFSET -1.74189 0 0
                            CHANNELS 3 Zrotation Xrotation Yrotation
                            End Site
                            {
                              OFFSET -1.645 0 0
                            }
                          }
                        }
                      }
                    }
                  }
                }
              }
            }
            JOINT LeftShoulder
            {
              OFFSET 3.22572 6.89245 -0.0537601
              CHANNELS 3 Zrotation Xrotation Yrotation
              JOINT LeftArm
              {
                OFFSET 12.8183 -0.0506887 -0.111983
                CHANNELS 3 Zrotation Xrotation Yrotation
                JOINT LeftForeArm
                {
                  OFFSET 26.4786 -0.0502099 0.0159937
                  CHANNELS 3 Zrotation Xrotation Yrotation
                  JOINT LeftHand
                  {
                    OFFSET 25.8931 -0.161185 0.0946899
                    CHANNELS 3 Zrotation Xrotation Yrotation
                    JOINT LeftHandThumb1
                    {
                      OFFSET 2.48905 0.190105 3.12053
                      CHANNELS 3 Zrotation Xrotation Yrotation
                      JOINT LeftHandThumb2
                      {
                        OFFSET 3.68274 0 0
                        CHANNELS 3 Zrotation Xrotation Yrotation
                        JOINT LeftHandThumb3
                        {
                          OFFSET 2.55832 0 0
                          CHANNELS 3 Zrotation Xrotation Yrotation
                          End Site
                          {
                            OFFSET 2.194 0 0
                          }
                        }
                      }
                    }
                    JOINT LeftInHandIndex
                    {
                      OFFSET 3.22368 0.508421 1.97842
                      CHANNELS 3 Zrotation Xrotation Yrotation
                      JOINT LeftHandIndex1
                      {
                        OFFSET 5.21684 -0.091368 0.999158
                        CHANNELS 3 Zrotation Xrotation Yrotation
                        JOINT LeftHandIndex2
                        {
                          OFFSET 3.61937 0 0
                          CHANNELS 3 Zrotation Xrotation Yrotation
                          JOINT LeftHandIndex3
                          {
                            OFFSET 2.0521 0 0
                            CHANNELS 3 Zrotation Xrotation Yrotation
                            End Site
                            {
                              OFFSET 1.805 0 0
                            }
                          }
                        }
                      }
                    }
                    JOINT LeftInHandMiddle
                    {
                      OFFSET 3.38211 0.517263 0.756737
                      CHANNELS 3 Zrotation Xrotation Yrotation
                      JOINT LeftHandMiddle1
                      {
                        OFFSET 5.17411 -0.084 0.313895
                        CHANNELS 3 Zrotation Xrotation Yrotation
                        JOINT LeftHandMiddle2
                        {
                          OFFSET 3.94947 0 0
                          CHANNELS 3 Zrotation Xrotation Yrotation
                          JOINT LeftHandMiddle3
                          {
                            OFFSET 2.47579 0 0
                            CHANNELS 3 Zrotation Xrotation Yrotation
                            End Site
                            {
                              OFFSET 1.975 0 0
                            }
                          }
                        }
                      }
                    }
                    JOINT LeftInHandRing
                    {
                      OFFSET 3.36516 0.537895 -0.128947
                      CHANNELS 3 Zrotation Xrotation Yrotation
                      JOINT LeftHandRing1
                      {
                        OFFSET 4.63474 -0.022105 -0.478947
                        CHANNELS 3 Zrotation Xrotation Yrotation
                        JOINT LeftHandRing2
                        {
                          OFFSET 3.44238 0 0
                          CHANNELS 3 Zrotation Xrotation Yrotation
                          JOINT LeftHandRing3
                          {
                            OFFSET 2.3881 0 0
                            CHANNELS 3 Zrotation Xrotation Yrotation
                            End Site
                            {
                              OFFSET 1.857 0 0
                            }
                          }
                        }
                      }
                    }
                    JOINT LeftInHandPinky
                    {
                      OFFSET 3.16105 0.469368 -1.20179
                      CHANNELS 3 Zrotation Xrotation Yrotation
                      JOINT LeftHandPinky1
                      {
                        OFFSET 4.14105 -0.022105 -1.09053
                        CHANNELS 3 Zrotation Xrotation Yrotation
                        JOINT LeftHandPinky2
                        {
                          OFFSET 2.75653 0 0
                          CHANNELS 3 Zrotation Xrotation Yrotation
                          JOINT LeftHandPinky3
                          {
                            OFFSET 1.74189 0 0
                            CHANNELS 3 Zrotation Xrotation Yrotation
                            End Site
                            {
                              OFFSET 1.645 0 0
                            }
                          }
                        }
                      }
                    }
                  }
                }
              }
            }
          }
        }
      }
    }
  }
}
MOTION
Frames: 2
Frame Time: 0.00833333
7.500000000000000000e+02 0.000000000000000000e+00 0.000000000000000000e+00 0.000000000000000000e+00 0.000000000000000000e+00 0.000000000000000000e+00 5.817734842957694497e+00 -3.601576727850825943e+00 -2.618305217864113033e+01 1.543946627017267126e+01 -2.407264961162996642e+01 5.433775547309808829e+00 8.966431032830683989e-01 -2.430966839373247534e+00 -4.672895722210623326e+00 6.447393667045727916e+00 9.614989550492092363e+00 9.327944307505761756e+00 1.641533321898632991e+01 -6.135538072451621083e+00 9.389979989764402291e+00 -4.983391556024546531e+00 8.589558683311557807e-01 1.578829134863664585e+01 -2.627458672320469368e+00 -7.570161867866405103e-01 6.119758992198634395e+00 -8.176537391562186841e+00 -2.500120852646916081e+00 -3.623176634151630715e+00 -2.159885608360588183e+00 3.396225948609528644e-01 -1.281396641509599421e+00 -3.446345077127597190e+00 -8.088812627691710500e-02 -2.335407837435868217e+00 -4.359205674663891861e-01 -1.848924748536752372e+00 -3.744122949416850976e-01 -1.109856936367911295e+01 -2.291196204852753837e+01 7.973922327454597614e+00 -5.177511335953305149e+00 -5.584123119487967024e+00 -2.020781358118914017e+00 -8.254908877956090851e-01 4.859258161960043898e-01 -2.114976295872466494e+00 1.385645646505668971e+01 -8.282332257078346416e+00 -8.701558978122328369e+00 -3.210736287548760259e+01 -1.496008072888584017e+01 8.028169120016123372e+01 -6.251998438048766538e+00 -4.967135356366745746e+00 9.850568115883778120e+00 0.000000000000000000e+00 0.000000000000000000e+00 0.000000000000000000e+00 1.877076556924231283e-15 -1.972429695439478001e-15 0.000000000000000000e+00 -1.000394807152495597e-17 -2.373459900733719266e-15 0.000000000000000000e+00 2.420627295236809876e-15 9.899493454316843722e-16 3.526882163302027424e-16 0.000000000000000000e+00 0.000000000000000000e+00 0.000000000000000000e+00 0.000000000000000000e+00 -2.736994638193637389e-15 2.852008158696233714e-15 0.000000000000000000e+00 -6.266257742983438611e-15 -2.203061812219367483e-14 2.420627295236809876e-15 9.899493454316843722e-16 3.526882163302027424e-16 0.000000000000000000e+00 2.951619705325179984e-15 -2.259174908412909174e-15 0.000000000000000000e+00 -2.928367507894733719e-15 -1.068358848786650122e-14 0.000000000000000000e+00 -4.607364746220580735e-15 -2.565417087864888948e-14 2.420627295236809876e-15 9.899493454316843722e-16 3.526882163302027424e-16 0.000000000000000000e+00 0.000000000000000000e+00 0.000000000000000000e+00 0.000000000000000000e+00 -1.236547813702988176e-15 -1.166957347367824875e-14 0.000000000000000000e+00 4.994869008141753757e-16 -1.041793411336814350e-14 2.420627295236809876e-15 9.899493454316843722e-16 3.526882163302027424e-16 0.000000000000000000e+00 0.000000000000000000e+00 0.000000000000000000e+00 0.000000000000000000e+00 -3.072902690114451694e-15 -1.229792490958746673e-14 0.000000000000000000e+00 5.170705257814272351e-15 2.424493271558975124e-14 -4.165286020167181746e+00 -5.808711556953955579e+00 -4.341457111853808115e+00 1.161278530106344675e+01 -3.197152168211716550e+00 -8.166946450682152303e+00 -4.712094315465517269e+00 1.061714456759454706e+01 -2.506055639305420080e+00 -5.761892785962103858e+01 2.255736597934130572e+01 -6.508587062875098184e+01 0.000000000000000000e+00 0.000000000000000000e+00 0.000000000000000000e+00 9.646585665692490917e-15 -3.790560608277610267e-16 0.000000000000000000e+00 8.824310191843980483e-15 2.583869204002599832e-15 0.000000000000000000e+00 -2.565851927779004838e-15 -4.724354772400018852e-15 -1.921914182877708614e-16 0.000000000000000000e+00 0.000000000000000000e+00 0.000000000000000000e+00 0.000000000000000000e+00 -3.969627958281315204e-15 2.010288847365777746e-14 0.000000000000000000e+00 -2.063447044049353360e-15 9.379043168236927897e-15 -2.565851927779004838e-15 -4.724354772400018852e-15 -1.921914182877708614e-16 0.000000000000000000e+00 -2.926719369644267289e-16 3.543504152882286466e-15 0.000000000000000000e+00 -1.535822586685177548e-14 5.447598759396496318e-14 0.000000000000000000e+00 8.392834361556476751e-16 1.393804232756739629e-15 -2.565851927779004838e-15 -4.724354772400018852e-15 -1.921914182877708614e-16 0.000000000000000000e+00 0.000000000000000000e+00 0.000000000000000000e+00 0.000000000000000000e+00 3.377253636203217530e-15 -4.614992040296912358e-15 0.000000000000000000e+00 -1.124218295954256899e-15 2.958492365830638630e-15 -2.565851927779004838e-15 -4.724354772400018852e-15 -1.921914182877708614e-16 0.000000000000000000e+00 0.000000000000000000e+00 0.000000000000000000e+00 0.000000000000000000e+00 -3.841161720562707862e-16 -1.548173184337515488e-15 0.000000000000000000e+00 3.756811655154534104e-17 7.611067715648651585e-15
7.500000000000000000e+02 0.000000000000000000e+00 0.000000000000000000e+00 0.000000000000000000e+00 0.000000000000000000e+00 0.000000000000000000e+00 5.791960313410238648e+00 -3.637094547896853491e+00 -2.537596005260067855e+01 1.484764151943649324e+01 -2.417737181888852405e+01 5.022412746317306720e+00 9.504997018089489380e-01 -2.298371698367670746e+00 -4.784334871854994731e+00 6.453145329565653121e+00 9.482497065170692352e+00 9.160931842747022102e+00 1.600416097574264995e+01 -6.360305130374328542e+00 9.207490278099063730e+00 -5.008743977226325583e+00 6.574056188032129100e-01 1.561680985838285807e+01 -2.195367534018315414e+00 -8.907163405404120438e-01 5.866703253271887242e+00 -8.026650897667547468e+00 -2.366078843789110486e+00 -3.456017737840946236e+00 -2.118016050365955749e+00 3.858975007773572385e-01 -1.228222170582822459e+00 -3.378297893260410412e+00 -3.691245625197681068e-02 -2.251480777456202453e+00 -4.454442441322316593e-01 -1.809867217329009570e+00 -3.578804480002676924e-01 -1.169685935635456531e+01 -2.208092086349413208e+01 7.014747867877154874e+00 -5.321476828048649743e+00 -5.568281889938520024e+00 -2.158026308610299537e+00 -7.706340073610129515e-01 4.047535992584476716e-01 -1.994998914485003771e+00 1.339670659647116935e+01 -7.989137381576456143e+00 -8.319714756307233117e+00 -3.407956765418261824e+01 -1.474663924160756601e+01 7.722330462670346662e+01 -6.070074076335701285e+00 -4.799968774141869510e+00 9.682093332452264889e+00 0.000000000000000000e+00 0.000000000000000000e+00 0.000000000000000000e+00 1.826909019677843917e-15 -1.909246433239485967e-15 0.000000000000000000e+00 -9.082799809911890773e-17 -2.265166027458020777e-15 0.000000000000000000e+00 2.424256779645068859e-15 9.970493176580110331e-16 2.893106441470362514e-16 0.000000000000000000e+00 0.000000000000000000e+00 0.000000000000000000e+00 0.000000000000000000e+00 -2.715707992740677983e-15 2.820714677587896442e-15 0.000000000000000000e+00 -6.151844783031945985e-15 -2.189103403815329114e-14 2.424256779645068859e-15 9.970493176580110331e-16 2.893106441470362514e-16 0.000000000000000000e+00 2.928066938308781249e-15 -2.141386069137172924e-15 0.000000000000000000e+00 -2.908905985719241270e-15 -1.048151355043123431e-14 0.000000000000000000e+00 -4.533229698794612411e-15 -2.566618151425310315e-14 2.424256779645068859e-15 9.970493176580110331e-16 2.893106441470362514e-16 0.000000000000000000e+00 0.000000000000000000e+00 0.000000000000000000e+00 0.000000000000000000e+00 -1.243621247679286443e-15 -1.144844200112811759e-14 0.000000000000000000e+00 5.190823333548188671e-16 -1.038697324033641708e-14 2.424256779645068859e-15 9.970493176580110331e-16 2.893106441470362514e-16 0.000000000000000000e+00 0.000000000000000000e+00 0.000000000000000000e+00 0.000000000000000000e+00 -3.043967015101298994e-15 -1.195631600012361542e-14 0.000000000000000000e+00 5.162249944105459963e-15 2.409238507991827825e-14 -4.194264281443459197e+00 -5.557119709135497132e+00 -4.253076099368714225e+00 1.122325983182154729e+01 -3.140098861762884219e+00 -7.771972735756274453e+00 -4.331437323252124827e+00 1.059709859634562434e+01 -1.875374215762763086e+00 -5.898970605928710143e+01 2.098608598030696015e+01 -6.562533133276650688e+01 0.000000000000000000e+00 0.000000000000000000e+00 0.000000000000000000e+00 9.464129981149757890e-15 -4.162609076417185833e-16 0.000000000000000000e+00 8.750400768637762858e-15 2.623596381013817347e-15 0.000000000000000000e+00 -2.549909429800846303e-15 -4.688639443816457489e-15 -3.400451999783339353e-16 0.000000000000000000e+00 0.000000000000000000e+00 0.000000000000000000e+00 0.000000000000000000e+00 -4.019610275235526061e-15 2.042126386821195617e-14 0.000000000000000000e+00 -2.152577361209539172e-15 9.404838006117869901e-15 -2.549909429800846303e-15 -4.688639443816457489e-15 -3.400451999783339353e-16 0.000000000000000000e+00 -2.610877988792451172e-16 3.789267430290278538e-15 0.000000000000000000e+00 -1.532658810684115163e-14 5.465052567710461482e-14 0.000000000000000000e+00 7.389086865673894587e-16 1.422861692487379509e-15 -2.549909429800846303e-15 -4.688639443816457489e-15 -3.400451999783339353e-16 0.000000000000000000e+00 0.000000000000000000e+00 0.000000000000000000e+00 0.000000000000000000e+00 3.224219940593261039e-15 -3.668301755510971782e-15 0.000000000000000000e+00 -1.147754383835296535e-15 3.030122301829354241e-15 -2.549909429800846303e-15 -4.688639443816457489e-15 -3.400451999783339353e-16 0.000000000000000000e+00 0.000000000000000000e+00 0.000000000000000000e+00 0.000000000000000000e+00 -4.065003831691587854e-16 -1.162065415082575992e-15 0.000000000000000000e+00 -5.061773112822070600e-17 7.615202494961613943e-15
